<?xml version="1.0" standalone="no"?>
<!DOCTYPE svg PUBLIC "-//W3C//DTD SVG 20010904//EN"
 "http://www.w3.org/TR/2001/REC-SVG-20010904/DTD/svg10.dtd">
<svg version="1.0" xmlns="http://www.w3.org/2000/svg"
 width="236.000000pt" height="345.000000pt" viewBox="0 0 236.000000 345.000000"
 preserveAspectRatio="xMidYMid meet">

<g transform="translate(0.000000,345.000000) scale(0.100000,-0.100000)"
fill="#000000" stroke="none">
<path d="M1094 3371 c-6 -31 -15 -33 -53 -12 -22 12 -23 12 -17 -4 5 -14 2
-16 -18 -11 -15 4 -26 1 -28 -6 -4 -10 -39 -9 -163 5 -126 14 -160 15 -166 5
-4 -7 -31 -109 -60 -228 -43 -179 -106 -432 -126 -502 -4 -12 3 -21 21 -28 31
-11 26 -28 -19 -70 -36 -34 -68 -88 -70 -119 -1 -14 -6 -56 -10 -93 -4 -43 -4
-68 2 -68 9 0 45 -117 45 -145 0 -5 -3 -74 -6 -151 -6 -118 -4 -149 10 -185 9
-24 16 -55 16 -69 -2 -36 18 -79 39 -91 14 -7 19 -21 19 -49 0 -22 4 -40 9
-40 5 0 11 -8 14 -17 2 -10 3 38 1 107 -1 69 0 110 3 93 2 -18 8 -33 12 -33 4
0 7 -13 6 -30 -1 -16 2 -30 7 -30 4 0 8 -6 8 -14 0 -8 7 -16 15 -20 8 -3 15
-11 15 -18 0 -6 10 -22 22 -35 19 -21 21 -27 9 -45 -12 -19 -11 -20 6 -15 13
5 12 2 -4 -9 -28 -20 -29 -40 -5 -67 10 -12 11 -17 3 -12 -11 6 -13 3 -7 -18
3 -14 2 -29 -4 -32 -5 -3 -10 4 -11 17 -1 19 -3 18 -11 -9 -8 -23 -7 -44 3
-77 7 -24 15 -43 18 -41 4 2 7 -7 7 -19 1 -12 16 -53 34 -89 28 -58 32 -75 27
-122 -6 -61 -12 -75 -33 -75 -27 0 -112 -95 -123 -137 -13 -46 -67 -83 -124
-83 -26 0 -37 -5 -42 -19 -7 -24 15 -78 44 -108 12 -13 17 -24 11 -28 -6 -4
-8 -11 -4 -16 3 -5 10 -6 16 -3 7 4 8 2 4 -4 -7 -12 -33 -12 -53 1 -6 4 -14 3
-18 -3 -3 -5 -1 -10 4 -10 6 0 11 -7 11 -15 0 -9 7 -18 15 -21 9 -4 15 -17 14
-33 -1 -14 2 -35 6 -46 6 -17 5 -17 -5 -5 -9 12 -10 10 -6 -12 4 -16 2 -28 -3
-28 -5 0 -11 -10 -13 -22 -2 -13 -9 -22 -16 -20 -13 2 -13 -33 1 -55 4 -6 3
-14 -2 -17 -5 -3 -9 -32 -9 -65 0 -32 -5 -69 -12 -81 -6 -12 -9 -33 -6 -46 6
-21 12 -24 54 -23 26 0 41 3 34 6 -10 4 -10 9 3 23 22 24 36 80 40 155 1 33 4
60 5 60 2 0 6 20 14 66 6 39 34 76 62 83 13 4 24 13 24 21 0 8 5 15 11 15 5 0
7 -5 3 -12 -5 -8 -2 -9 10 -5 10 4 45 -4 79 -17 146 -56 180 -59 223 -19 16
15 30 30 30 35 1 4 2 13 3 19 0 5 6 7 11 4 6 -3 10 -2 10 3 0 17 29 22 55 10
14 -6 25 -18 25 -26 0 -8 11 -23 25 -34 14 -11 25 -29 25 -40 0 -19 4 -20 50
-15 64 8 83 19 50 28 l-25 7 25 2 c23 1 24 2 5 10 -16 6 -22 18 -23 47 -2 21
-6 62 -11 91 -4 29 -5 52 -1 52 4 0 10 13 13 28 4 21 18 34 53 52 47 25 80 62
70 79 -3 5 1 11 9 15 23 9 19 53 -6 59 -12 3 -18 10 -14 16 3 6 2 11 -4 11 -6
0 -15 8 -20 18 -8 14 -4 27 14 55 14 20 25 41 25 46 0 14 -37 14 -45 1 -10
-16 -22 -12 -28 10 -3 12 0 20 7 20 7 0 25 13 41 30 16 16 39 30 52 30 13 0
23 3 23 8 0 4 9 13 20 20 16 10 24 10 40 0 11 -7 20 -18 20 -25 0 -35 51 -9
64 33 11 35 -1 50 -37 47 -45 -4 -198 -30 -224 -38 -22 -7 -31 4 -16 19 4 3 8
20 9 37 2 23 -3 33 -22 41 -18 9 -22 16 -18 35 5 17 2 23 -10 23 -9 0 -16 6
-16 14 0 7 -3 28 -6 45 -5 26 -4 30 9 25 14 -5 15 11 13 128 -1 73 -6 149 -10
168 -22 95 8 230 51 230 19 0 43 -37 43 -66 0 -16 5 -36 10 -44 9 -13 11 -13
20 0 8 12 10 11 10 -7 0 -13 0 -25 0 -28 0 -3 14 -18 32 -33 18 -15 41 -34 51
-43 24 -22 94 -31 121 -16 41 23 56 40 51 58 -4 11 1 22 12 29 11 7 12 10 3 7
-8 -2 -26 0 -39 5 -22 8 -22 10 -8 26 8 9 19 29 22 45 l7 27 39 -22 c21 -12
39 -25 39 -30 0 -4 7 -8 15 -8 20 0 20 50 0 76 -20 27 -20 68 1 60 9 -3 29 -6
45 -6 l29 0 0 -141 c0 -158 4 -163 53 -67 21 42 28 71 31 138 2 47 11 114 19
150 8 36 20 99 27 140 6 41 15 89 20 105 5 17 11 75 14 130 2 55 8 108 11 117
4 10 -1 29 -13 45 -11 15 -23 43 -27 61 -3 17 -10 32 -15 32 -4 0 -10 9 -13
20 -3 13 -10 18 -21 14 -9 -3 -16 -1 -16 5 0 6 5 11 11 11 5 0 7 5 4 10 -3 6
-15 10 -26 10 -10 0 -19 4 -19 9 0 5 -13 12 -30 16 -16 4 -30 10 -30 14 0 4
-7 16 -15 26 -9 11 -35 49 -58 85 -39 60 -49 69 -144 120 -99 53 -103 56 -103
89 0 33 0 33 36 26 26 -4 34 -3 29 5 -10 16 13 30 48 30 16 0 26 4 22 10 -3 6
-1 10 6 10 7 0 9 3 6 6 -3 4 2 17 12 30 17 21 17 28 6 61 -8 25 -23 43 -41 52
-16 8 -31 18 -32 23 -7 16 -60 38 -92 38 -17 0 -44 -7 -61 -15 l-30 -16 7 28
6 28 -16 -22 c-12 -16 -28 -23 -50 -23 -29 0 -39 8 -75 55 -23 30 -46 55 -52
55 -5 0 -12 -13 -15 -29z m-298 -60 c-3 -5 0 -9 7 -8 60 2 62 -14 2 -32 -26
-8 -45 -19 -45 -28 0 -7 -9 -23 -20 -35 -21 -23 -27 -63 -10 -73 6 -4 8 -10 5
-15 -3 -4 2 -14 11 -21 13 -10 19 -10 36 0 18 11 20 11 15 -3 -10 -27 39 -41
70 -21 32 21 53 13 45 -17 -5 -22 -5 -22 12 -5 18 18 36 23 36 9 0 -11 39 -32
65 -36 25 -4 32 -26 7 -26 -10 0 -40 -3 -66 -6 -42 -6 -46 -5 -40 11 6 15 4
16 -14 6 -27 -14 -35 -14 -26 1 5 8 2 9 -9 5 -10 -3 -17 -2 -17 3 0 6 -4 10
-9 10 -4 0 -6 -11 -4 -24 4 -20 0 -25 -26 -31 -19 -4 -37 -17 -46 -33 l-14
-27 -1 29 c0 39 -11 26 -30 -37 -20 -64 -88 -160 -108 -152 -10 4 -12 0 -8
-11 4 -9 1 -23 -6 -32 -7 -8 -12 -18 -10 -21 1 -3 -6 -7 -18 -9 -25 -4 -25 0
5 128 14 58 34 146 45 196 18 86 56 248 66 286 5 16 27 23 82 27 13 0 21 -3
18 -8z m934 -1245 c0 -63 -4 -117 -9 -120 -4 -3 -17 1 -27 9 -10 8 -31 15 -45
15 -15 0 -40 3 -57 6 -31 6 -31 7 -16 35 8 16 27 38 42 49 16 12 41 43 57 71
46 78 55 67 55 -65z m-140 5 c0 -23 -47 -61 -80 -65 -31 -4 -33 -3 -16 10 11
7 22 11 26 9 4 -2 20 9 35 25 31 33 35 35 35 21z m-851 -286 c2 -13 -1 -16
-14 -11 -9 3 -21 6 -26 6 -5 0 -9 7 -9 15 0 21 44 12 49 -10z"/>
<path d="M726 3053 c-6 -14 -5 -15 5 -6 7 7 10 15 7 18 -3 3 -9 -2 -12 -12z"/>
<path d="M756 3002 c-3 -6 -1 -14 5 -17 14 -9 20 -2 10 14 -6 8 -11 9 -15 3z"/>
<path d="M670 2955 c-7 -8 -9 -15 -6 -15 4 0 2 -10 -5 -21 -9 -17 -8 -20 2
-17 8 3 16 19 20 36 7 36 6 38 -11 17z"/>
<path d="M1380 1397 c0 -7 14 -40 30 -74 17 -34 31 -73 32 -87 2 -17 7 -25 16
-21 7 2 18 -7 24 -21 11 -23 13 -24 19 -7 26 64 -18 193 -65 193 -9 0 -19 7
-22 15 -7 18 -34 20 -34 2z"/>
<path d="M1317 1253 c-4 -3 -7 -11 -7 -17 0 -6 5 -5 12 2 6 6 9 14 7 17 -3 3
-9 2 -12 -2z"/>
<path d="M1467 715 c4 -44 8 -119 8 -167 l0 -87 22 21 c28 26 34 21 44 -39 4
-27 11 -57 14 -68 31 -110 45 -209 42 -287 l-3 -88 47 0 46 0 -4 43 c-2 23 -6
74 -8 112 -3 70 -21 155 -43 208 -7 16 -12 39 -12 53 0 37 -35 135 -96 271 -8
17 -14 35 -14 40 -1 4 -12 22 -26 38 l-25 30 8 -80z"/>
<path d="M32 435 c0 -16 2 -22 5 -12 2 9 2 23 0 30 -3 6 -5 -1 -5 -18z"/>
<path d="M12 410 c0 -19 2 -27 5 -17 2 9 2 25 0 35 -3 9 -5 1 -5 -18z"/>
<path d="M1393 425 c-18 -8 -33 -17 -33 -20 0 -5 70 21 79 30 9 9 -14 4 -46
-10z"/>
</g>
</svg>
