<?xml version="1.0" standalone="no"?>
<!DOCTYPE svg PUBLIC "-//W3C//DTD SVG 20010904//EN"
 "http://www.w3.org/TR/2001/REC-SVG-20010904/DTD/svg10.dtd">
<svg version="1.0" xmlns="http://www.w3.org/2000/svg"
 width="1390.000000pt" height="1868.000000pt" viewBox="0 0 1390.000000 1868.000000"
 preserveAspectRatio="xMidYMid meet">

<g transform="translate(0.000000,1868.000000) scale(0.100000,-0.100000)"
fill="#000000" stroke="none">
<path d="M10376 17654 c-467 -60 -890 -242 -1221 -526 -231 -198 -379 -410
-436 -623 -28 -105 -30 -280 -5 -380 25 -98 95 -239 166 -333 176 -233 517
-470 890 -618 101 -39 105 -42 104 -70 -5 -90 -5 -336 -1 -341 3 -2 87 59 187
136 100 78 187 141 194 141 6 0 74 -7 151 -15 536 -57 1078 50 1421 281 365
245 540 616 502 1064 -22 256 -120 520 -268 720 -60 82 -203 220 -290 282
-206 146 -494 250 -800 288 -117 14 -462 11 -594 -6z m684 -99 c253 -46 515
-152 676 -273 204 -154 352 -362 436 -612 53 -157 63 -223 63 -415 0 -157 -3
-191 -23 -265 -66 -242 -193 -427 -395 -577 -187 -137 -464 -241 -777 -289
-162 -25 -517 -25 -692 -1 l-127 19 -123 -96 c-68 -53 -126 -96 -130 -96 -3 0
-4 57 -1 128 l5 127 -84 27 c-175 55 -436 188 -602 307 -206 147 -337 287
-416 446 -63 125 -83 204 -83 320 1 255 139 500 418 742 320 278 717 451 1185
517 145 21 537 15 670 -9z"/>
<path d="M10193 17030 c-30 -12 -39 -32 -69 -152 -23 -90 -27 -127 -30 -293
-6 -349 -7 -354 -84 -865 -29 -193 -32 -180 40 -180 96 0 97 3 120 245 5 55
16 136 24 180 8 44 21 142 27 218 l13 137 35 0 c299 3 376 1 373 -10 -1 -6 -9
-73 -17 -148 -20 -185 -35 -304 -49 -382 -12 -65 -13 -117 -3 -144 5 -12 14
-12 66 1 l59 15 16 72 c38 175 60 337 71 536 4 58 13 137 20 175 20 96 33 256
35 402 1 111 -1 124 -20 143 -13 13 -33 20 -58 20 -63 0 -70 -15 -72 -170 -1
-74 -9 -193 -18 -265 l-17 -129 -39 -8 c-22 -5 -116 -7 -209 -6 l-170 3 1 110
c1 149 10 250 34 374 10 57 17 110 14 117 -6 16 -59 18 -93 4z"/>
<path d="M11079 16700 c-61 -36 4 -174 74 -156 29 7 48 45 41 83 -9 53 -77 96
-115 73z"/>
<path d="M11001 16348 c-27 -69 -101 -323 -101 -348 0 -46 21 -80 62 -101 l38
-20 9 24 c70 185 110 349 97 400 -15 61 -87 91 -105 45z"/>
<path d="M6188 17155 c-26 -14 -66 -48 -90 -77 -97 -116 -142 -159 -162 -156
-14 2 -39 31 -71 80 -27 43 -53 77 -56 78 -3 0 -17 -37 -30 -82 -36 -123 -32
-205 20 -405 54 -210 60 -267 35 -341 -10 -31 -19 -58 -20 -60 -1 -1 -67 4
-148 13 -236 25 -362 30 -696 30 -336 0 -494 -7 -710 -30 -1002 -111 -1799
-418 -2469 -953 -130 -104 -407 -382 -515 -517 -406 -507 -655 -1102 -742
-1765 -19 -148 -28 -633 -13 -755 77 -650 350 -1224 835 -1759 239 -264 591
-548 921 -743 73 -43 132 -81 133 -85 0 -3 -28 -26 -63 -51 -104 -74 -357
-278 -483 -390 -313 -275 -586 -624 -690 -882 -74 -185 -97 -404 -56 -555 78
-285 382 -868 598 -1146 l41 -53 7 -203 c4 -112 9 -219 11 -238 2 -19 9 -78
15 -130 50 -442 242 -822 537 -1062 254 -207 636 -370 1027 -440 67 -12 125
-25 129 -29 5 -4 26 -101 48 -215 22 -115 80 -414 130 -664 49 -250 107 -558
130 -685 22 -126 41 -237 43 -247 2 -9 -9 -25 -25 -37 -28 -21 -29 -25 -29
-100 l0 -79 -68 -40 c-38 -23 -110 -62 -161 -88 -103 -53 -155 -103 -172 -168
-29 -108 40 -186 164 -186 117 0 367 58 467 109 101 50 122 156 62 317 -16 44
-32 107 -36 140 -9 76 -41 144 -67 144 -24 0 -20 -15 -64 240 -20 118 -70 386
-111 595 -41 209 -97 499 -124 645 -28 146 -52 274 -55 285 -4 20 -3 20 103 9
253 -29 526 -37 1187 -38 600 -1 976 6 1070 19 17 2 89 9 160 15 249 21 598
80 804 135 52 14 95 24 96 23 19 -20 55 -1080 55 -1629 0 -223 -2 -258 -16
-263 -21 -8 -50 -81 -58 -146 -4 -30 -20 -94 -37 -141 -47 -138 -37 -235 29
-290 58 -50 362 -129 493 -129 129 0 196 70 175 183 -10 56 -78 123 -170 169
-44 22 -115 60 -157 85 l-76 45 4 62 c6 75 -8 114 -46 129 l-28 10 -6 631 c-4
347 -11 723 -16 836 -6 113 -13 268 -17 345 l-6 141 143 54 c277 104 551 255
739 407 110 89 268 257 333 355 73 109 149 269 181 381 50 174 60 255 60 497
0 246 -10 336 -69 657 -138 752 -324 1361 -599 1966 l-26 58 89 -78 c169 -147
340 -236 530 -275 175 -37 399 -15 601 58 359 129 608 355 1156 1048 l150 190
65 1 c52 0 80 7 149 39 48 21 113 42 150 47 77 11 157 48 185 86 11 17 21 49
23 83 5 69 -22 114 -88 148 -39 20 -56 23 -125 20 -146 -7 -234 -71 -402 -291
-155 -204 -463 -585 -570 -707 -150 -170 -312 -326 -403 -387 -368 -247 -741
-305 -1058 -162 -97 44 -224 131 -313 216 -112 106 -346 385 -429 511 l-69
103 147 99 c190 127 288 207 441 355 286 278 478 560 641 941 282 658 364
1613 205 2394 -218 1072 -853 1895 -1820 2361 -291 140 -477 205 -887 310
l-38 10 45 88 c71 140 144 190 261 178 57 -6 115 -32 185 -83 26 -19 51 -34
57 -34 15 0 4 132 -15 193 -11 34 -31 65 -69 102 l-54 53 67 20 c38 12 80 24
96 27 32 8 33 14 8 63 -35 69 -76 95 -201 127 -36 9 -68 22 -72 28 -9 15 5 47
58 134 25 41 44 77 41 79 -2 2 -68 -17 -148 -42 -178 -56 -208 -59 -226 -22
-8 15 -16 57 -20 93 -3 37 -11 65 -17 65 -6 -1 -32 -12 -58 -25z m0 -209 c31
-52 72 -69 151 -63 36 2 74 8 84 12 14 6 17 2 17 -21 0 -67 64 -121 163 -139
l38 -7 -91 -44 -90 -45 26 -39 c15 -22 51 -56 80 -75 30 -20 54 -37 54 -38 0
-1 -36 -1 -80 1 -54 2 -96 -2 -126 -12 -59 -20 -137 -78 -164 -121 l-21 -35
-37 19 c-55 27 -138 44 -186 38 l-42 -6 -11 67 c-7 37 -25 117 -42 179 -16 62
-33 132 -36 156 l-7 44 54 -5 c79 -6 135 28 212 131 16 20 30 37 31 37 2 0 12
-15 23 -34z m-853 -827 c812 -47 1495 -239 2070 -581 582 -347 1028 -864 1285
-1488 108 -264 192 -576 228 -846 l8 -61 -210 102 c-1516 735 -3016 1254
-4071 1409 -707 104 -1632 133 -2090 66 -319 -47 -844 -165 -1200 -269 -93
-27 -171 -48 -173 -46 -7 7 106 163 197 275 553 675 1381 1140 2376 1334 168
33 338 60 450 71 33 3 74 7 90 10 203 28 748 41 1040 24z m-1795 -1489 c579
-22 1083 -79 1510 -170 738 -158 1602 -443 2530 -833 485 -204 1248 -556 1234
-570 -3 -3 1 -5 8 -4 7 0 36 -10 64 -24 l51 -24 6 -75 c14 -168 20 -470 10
-470 -6 0 -96 42 -199 94 -1318 658 -2687 1060 -4124 1211 -471 49 -1248 70
-1717 46 -704 -36 -1444 -137 -2043 -279 -44 -11 -80 -18 -80 -16 0 16 79 256
111 336 35 89 62 149 151 336 24 50 33 54 234 117 370 115 915 241 1282 296
233 35 559 44 972 29z m675 -949 c648 -50 1149 -123 1715 -247 112 -25 208
-48 212 -50 4 -3 -3 -26 -16 -52 -36 -71 -48 -128 -48 -222 1 -92 10 -142 42
-234 43 -125 96 -205 290 -431 154 -181 215 -279 250 -405 24 -86 29 -164 34
-520 4 -280 15 -358 68 -508 38 -108 67 -166 131 -262 84 -126 304 -331 340
-317 7 2 22 23 35 45 l22 40 -62 45 c-159 113 -302 309 -366 502 -45 134 -53
205 -54 489 0 149 -5 309 -10 356 -24 227 -95 369 -306 613 -141 163 -199 243
-236 321 -87 183 -87 375 1 484 l19 24 65 -17 c35 -9 106 -28 157 -42 l93 -26
-4 -51 c-14 -159 103 -336 313 -476 207 -138 276 -209 312 -323 16 -52 19 -85
17 -202 -7 -358 0 -424 57 -523 57 -98 156 -162 251 -162 81 0 84 2 61 64 -17
46 -23 52 -43 48 -73 -13 -170 74 -200 179 -13 49 -16 93 -14 203 8 370 -2
435 -82 555 -51 76 -112 130 -264 233 -197 134 -295 257 -295 370 0 30 4 48
12 48 23 0 407 -123 613 -197 518 -185 1074 -425 1484 -640 l144 -76 -7 -91
c-59 -810 -332 -1480 -805 -1978 -508 -535 -1298 -904 -2311 -1078 -333 -57
-561 -76 -910 -74 -1297 7 -2555 505 -3385 1338 -489 492 -786 1055 -886 1681
-28 181 -35 532 -13 740 14 142 53 379 76 470 l13 50 95 22 c626 150 1331 251
2035 292 197 12 1181 6 1360 -8z m3256 -4129 c9 -15 60 -99 114 -187 369 -609
658 -1421 835 -2350 63 -328 81 -491 81 -714 0 -238 -26 -392 -97 -568 -178
-441 -634 -795 -1304 -1011 -273 -88 -672 -165 -970 -187 -47 -4 -92 -8 -100
-10 -8 -2 -80 -7 -160 -10 -80 -4 -158 -9 -175 -11 -42 -5 -1395 -4 -1480 1
-38 2 -131 7 -205 10 -74 3 -144 8 -155 10 -11 2 -51 6 -88 10 -352 29 -698
112 -979 236 -194 85 -348 188 -483 324 -253 253 -374 557 -420 1054 -7 79 -8
635 -1 717 3 33 8 109 11 169 7 120 8 135 30 340 80 719 259 1397 531 2004 41
91 77 168 82 173 5 5 78 -25 163 -66 502 -241 1093 -409 1660 -471 79 -8 162
-18 184 -20 77 -10 631 -13 730 -5 55 5 136 11 180 15 153 12 482 65 705 115
439 97 876 248 1198 415 48 24 89 45 92 45 3 0 12 -12 21 -28z m-5150 -195
c-48 -107 -155 -392 -206 -547 -193 -593 -315 -1279 -341 -1914 -4 -88 -8
-162 -9 -164 -1 -1 -24 30 -50 70 -203 304 -421 739 -485 970 -39 141 -21 318
53 498 107 261 409 629 747 911 153 128 311 251 316 246 3 -2 -9 -34 -25 -70z
m4839 -6827 c0 -20 -5 -30 -15 -30 -10 0 -15 10 -15 30 0 20 5 30 15 30 10 0
15 -10 15 -30z m-3237 -32 c7 -26 1 -38 -19 -38 -9 0 -14 11 -14 30 0 35 25
41 33 8z"/>
<path d="M5468 15933 c-8 -10 -24 -34 -36 -53 -31 -52 -119 -134 -183 -172
-50 -29 -332 -268 -325 -276 2 -1 63 26 137 61 74 35 147 67 162 71 54 13 163
99 279 218 65 66 111 117 103 114 -8 -3 -22 -9 -30 -12 -11 -5 -15 1 -15 20 0
43 -63 63 -92 29z"/>
<path d="M5754 15709 c-76 -62 -143 -120 -148 -131 -13 -26 7 -64 38 -70 31
-6 65 15 209 135 100 83 112 99 107 137 -2 19 -29 40 -50 40 -10 0 -80 -50
-156 -111z"/>
<path d="M3146 12658 c-11 -18 -16 -83 -21 -275 -8 -275 -7 -283 46 -283 45 0
59 23 60 98 1 37 3 83 4 102 2 19 4 105 6 191 4 173 -1 189 -52 189 -19 0 -34
-8 -43 -22z"/>
<path d="M4180 12652 c-26 -21 -26 -19 -35 -313 -7 -204 -6 -227 10 -242 22
-23 51 -21 75 3 16 16 20 34 21 88 0 37 2 92 4 122 2 30 6 115 9 188 6 123 5
133 -14 152 -25 25 -41 25 -70 2z"/>
</g>
</svg>
